<svg width="22" height="22" viewBox="0 0 22 22" fill="none" xmlns="http://www.w3.org/2000/svg">
<path d="M19.8906 15.0659L20.5286 15.4602L19.8906 15.0659ZM19.6563 15.4745L18.959 15.1984L19.6563 15.4745ZM19.6736 16.3078L20.3996 16.1196L19.6736 16.3078ZM19.589 15.9198L20.3368 15.862L19.589 15.9198ZM16.1696 19.8117L15.9814 20.5378L16.1696 19.8117ZM15.7812 19.7272L15.8386 18.9794L15.7812 19.7272ZM14.9282 20.0295L15.3241 20.6665L14.9282 20.0295ZM15.3347 19.7953L15.6122 20.492L15.3347 19.7953ZM18.5094 20.2085L18.3598 19.4736L18.5094 20.2085ZM20.0704 18.6476L19.3354 18.498L20.0704 18.6476ZM6.85786 14.2461C6.44365 14.2461 6.10786 14.5819 6.10786 14.9961C6.10786 15.4103 6.44365 15.7461 6.85786 15.7461V14.2461ZM14.8579 15.7461C15.2721 15.7461 15.6079 15.4103 15.6079 14.9961C15.6079 14.5819 15.2721 14.2461 14.8579 14.2461V15.7461ZM6.85786 10.2461C6.44365 10.2461 6.10786 10.5819 6.10786 10.9961C6.10786 11.4103 6.44365 11.7461 6.85786 11.7461V10.2461ZM14.8579 11.7461C15.2721 11.7461 15.6079 11.4103 15.6079 10.9961C15.6079 10.5819 15.2721 10.2461 14.8579 10.2461V11.7461ZM6.85786 6.24606C6.44365 6.24606 6.10786 6.58185 6.10786 6.99606C6.10786 7.41028 6.44365 7.74606 6.85786 7.74606V6.24606ZM14.8579 7.74606C15.2721 7.74606 15.6079 7.41028 15.6079 6.99606C15.6079 6.58185 15.2721 6.24606 14.8579 6.24606V7.74606ZM4.45926 17.6789C0.846912 14.0666 0.846912 8.2098 4.45926 4.59745L3.3986 3.53679C-0.799534 7.73492 -0.799534 14.5414 3.3986 18.7396L4.45926 17.6789ZM4.45926 4.59745C8.07161 0.985096 13.9284 0.985096 17.5407 4.59745L18.6014 3.53679C14.4033 -0.661351 7.59674 -0.661351 3.3986 3.53679L4.45926 4.59745ZM14.5323 19.3925C12.785 20.4784 10.8402 20.6131 9.02531 20.1866C7.19937 19.7575 5.54798 18.7676 4.45926 17.6789L3.3986 18.7396C4.67827 20.0193 6.57586 21.1518 8.68213 21.6468C10.7994 22.1444 13.1701 22.0051 15.3241 20.6665L14.5323 19.3925ZM17.5407 4.59745C18.5788 5.63548 19.5687 7.28462 20.0093 9.1267C20.4475 10.9583 20.332 12.925 19.2526 14.6716L20.5286 15.4602C21.8653 13.297 21.9759 10.9001 21.4682 8.77771C20.963 6.66576 19.835 4.77041 18.6014 3.53679L17.5407 4.59745ZM19.2526 14.6716C19.1393 14.8549 19.0227 15.0375 18.959 15.1984L20.3536 15.7507C20.3486 15.7634 20.3505 15.7548 20.3832 15.6986C20.4149 15.6443 20.4592 15.5724 20.5286 15.4602L19.2526 14.6716ZM20.3996 16.1196C20.3725 16.0152 20.3566 15.9534 20.3459 15.9064C20.3359 15.8621 20.3362 15.8547 20.3368 15.862L18.8413 15.9775C18.8545 16.1485 18.9037 16.3269 18.9475 16.496L20.3996 16.1196ZM18.959 15.1984C18.8547 15.4617 18.8194 15.6952 18.8413 15.9775L20.3368 15.862C20.3335 15.8192 20.3358 15.806 20.336 15.8049C20.3362 15.8038 20.3378 15.7906 20.3536 15.7507L18.959 15.1984ZM16.3578 19.0857C16.1886 19.0419 16.0101 18.9926 15.8386 18.9794L15.7239 20.475C15.7166 20.4745 15.724 20.4741 15.7682 20.4841C15.8152 20.4947 15.877 20.5107 15.9814 20.5378L16.3578 19.0857ZM15.3241 20.6665C15.4356 20.5972 15.5068 20.553 15.5606 20.5215C15.6162 20.4889 15.6247 20.4871 15.6122 20.492L15.0572 19.0985C14.896 19.1627 14.7143 19.2794 14.5323 19.3925L15.3241 20.6665ZM15.8386 18.9794C15.5559 18.9577 15.3207 18.9936 15.0572 19.0985L15.6122 20.492C15.6515 20.4764 15.665 20.4746 15.6666 20.4744C15.6683 20.4741 15.6817 20.4718 15.7239 20.475L15.8386 18.9794ZM15.9814 20.5378C16.6 20.6981 17.1005 20.8282 17.5023 20.904C17.9006 20.9791 18.2871 21.0192 18.659 20.9435L18.3598 19.4736C18.2786 19.4901 18.1241 19.4948 17.7803 19.43C17.4399 19.3658 16.997 19.2514 16.3578 19.0857L15.9814 20.5378ZM18.9475 16.496C19.1132 17.1352 19.2276 17.578 19.2918 17.9184C19.3566 18.2623 19.352 18.4168 19.3354 18.498L20.8053 18.7971C20.881 18.4253 20.8409 18.0388 20.7658 17.6405C20.69 17.2387 20.5599 16.7382 20.3996 16.1196L18.9475 16.496ZM18.659 20.9435C19.7402 20.7234 20.5852 19.8784 20.8053 18.7971L19.3354 18.498C19.2354 18.9895 18.8513 19.3736 18.3598 19.4736L18.659 20.9435ZM6.85786 15.7461H14.8579V14.2461H6.85786V15.7461ZM6.85786 11.7461H14.8579V10.2461H6.85786V11.7461ZM6.85786 7.74606H14.8579V6.24606H6.85786V7.74606Z" fill="#282828"/>
</svg>
