<svg width="23" height="20" viewBox="0 0 23 20" fill="none" xmlns="http://www.w3.org/2000/svg">
<path d="M4.92893 6.06712L5.45926 5.53679L4.92893 6.06712ZM3 4.13818L2.46967 4.66851L3 4.13818ZM11 18.3882C10.5858 18.3882 10.25 18.724 10.25 19.1382C10.25 19.5524 10.5858 19.8882 11 19.8882V18.3882ZM21.0451 17.0771L20.4383 16.6363V16.6363L21.0451 17.0771ZM19.9389 18.1833L19.4981 17.5765V17.5765L19.9389 18.1833ZM19.9389 2.0931L20.3798 1.48634V1.48634L19.9389 2.0931ZM21.0451 3.19926L20.4383 3.6401V3.6401L21.0451 3.19926ZM4.06107 2.0931L3.62023 1.48634L3.62023 1.48634L4.06107 2.0931ZM1.25 10.1382C1.25 10.5524 1.58579 10.8882 2 10.8882C2.41421 10.8882 2.75 10.5524 2.75 10.1382H1.25ZM2.95491 3.19926L2.34815 2.75842L2.34815 2.75842L2.95491 3.19926ZM1 16.3882C0.585786 16.3882 0.25 16.724 0.25 17.1382C0.25 17.5524 0.585786 17.8882 1 17.8882V16.3882ZM7 17.8882C7.41421 17.8882 7.75 17.5524 7.75 17.1382C7.75 16.724 7.41421 16.3882 7 16.3882V17.8882ZM1 13.3882C0.585786 13.3882 0.25 13.724 0.25 14.1382C0.25 14.5524 0.585786 14.8882 1 14.8882V13.3882ZM4 14.8882C4.41421 14.8882 4.75 14.5524 4.75 14.1382C4.75 13.724 4.41421 13.3882 4 13.3882V14.8882ZM2.62103 3.75921L1.94538 3.43365L2.62103 3.75921ZM5.45926 5.53679L3.65165 3.72918L2.59099 4.78984L4.3986 6.59745L5.45926 5.53679ZM20.3483 3.72918L18.5407 5.53678L19.6014 6.59744L21.409 4.78984L20.3483 3.72918ZM4.3986 6.59745C6.05028 8.24912 7.34126 9.54235 8.48288 10.4134C9.64181 11.2976 10.7345 11.8171 12 11.8171V10.3171C11.1944 10.3171 10.4183 10.0033 9.39275 9.22085C8.34994 8.42521 7.14092 7.21844 5.45926 5.53679L4.3986 6.59745ZM18.5407 5.53678C16.8591 7.21844 15.6501 8.42521 14.6072 9.22085C13.5817 10.0033 12.8056 10.3171 12 10.3171V11.8171C13.2655 11.8171 14.3582 11.2976 15.5171 10.4134C16.6587 9.54235 17.9497 8.24912 19.6014 6.59744L18.5407 5.53678ZM5.45926 5.53679L3.53033 3.60785L2.46967 4.66851L4.3986 6.59745L5.45926 5.53679ZM20.4697 3.60785L18.5407 5.53678L19.6014 6.59744L21.5303 4.66851L20.4697 3.60785ZM11 1.88818H13V0.388184H11V1.88818ZM13 18.3882H11V19.8882H13V18.3882ZM21.25 10.1382C21.25 12.0298 21.249 13.3882 21.135 14.4401C21.0225 15.478 20.8074 16.1283 20.4383 16.6363L21.6518 17.5179C22.2377 16.7116 22.5 15.7672 22.6263 14.6017C22.751 13.4502 22.75 11.9963 22.75 10.1382H21.25ZM13 19.8882C14.8582 19.8882 16.312 19.8892 17.4635 19.7645C18.6291 19.6382 19.5734 19.3759 20.3798 18.79L19.4981 17.5765C18.9901 17.9456 18.3399 18.1607 17.302 18.2732C16.25 18.3872 14.8916 18.3882 13 18.3882V19.8882ZM20.4383 16.6363C20.1762 16.9971 19.8589 17.3144 19.4981 17.5765L20.3798 18.79C20.8679 18.4354 21.2972 18.0061 21.6518 17.5179L20.4383 16.6363ZM13 1.88818C14.8916 1.88818 16.25 1.88921 17.302 2.00318C18.3399 2.11564 18.9901 2.33077 19.4981 2.69986L20.3798 1.48634C19.5734 0.900507 18.6291 0.638189 17.4635 0.511911C16.312 0.387154 14.8582 0.388184 13 0.388184V1.88818ZM19.4981 2.69986C19.8589 2.962 20.1762 3.27929 20.4383 3.6401L21.6518 2.75842C21.2972 2.27027 20.8679 1.84099 20.3798 1.48634L19.4981 2.69986ZM11 0.388184C9.14184 0.388184 7.68798 0.387154 6.53648 0.511911C5.37094 0.638189 4.42656 0.900507 3.62023 1.48634L4.50191 2.69986C5.00992 2.33077 5.66013 2.11564 6.69804 2.00318C7.74999 1.88921 9.10843 1.88818 11 1.88818V0.388184ZM3.62023 1.48634C3.13209 1.84099 2.70281 2.27027 2.34815 2.75842L3.56168 3.6401C3.82382 3.27929 4.14111 2.962 4.50191 2.69986L3.62023 1.48634ZM1 17.8882H7V16.3882H1V17.8882ZM1 14.8882H4V13.3882H1V14.8882ZM2.75 10.1382C2.75 8.50301 2.75049 7.26311 2.8255 6.27023C2.90037 5.27912 3.04588 4.60528 3.29668 4.08478L1.94538 3.43365C1.57515 4.20197 1.41014 5.09325 1.32976 6.15723C1.24951 7.21943 1.25 8.52461 1.25 10.1382H2.75ZM3.29668 4.08478C3.37348 3.92541 3.46113 3.7785 3.56168 3.6401L2.34815 2.75842C2.19354 2.97122 2.06012 3.19552 1.94538 3.43365L3.29668 4.08478ZM3.53033 3.60785L3.15136 3.22888L2.0907 4.28954L2.46967 4.66851L3.53033 3.60785ZM22.75 10.1382C22.75 8.52461 22.7505 7.21943 22.6702 6.15723C22.5899 5.09324 22.4248 4.20197 22.0546 3.43364L20.7033 4.08478C20.9541 4.60528 21.0996 5.27912 21.1745 6.27023C21.2495 7.26311 21.25 8.50301 21.25 10.1382H22.75ZM22.0546 3.43364C21.9399 3.19552 21.8065 2.97122 21.6518 2.75842L20.4383 3.6401C20.5389 3.77849 20.6265 3.92541 20.7033 4.08478L22.0546 3.43364ZM21.5303 4.66851L21.9093 4.28954L20.8486 3.22888L20.4697 3.60785L21.5303 4.66851Z" fill="#282828"/>
</svg>
