<svg width="24" height="24" viewBox="0 0 24 24" fill="none" xmlns="http://www.w3.org/2000/svg">
<path d="M4.252 11C4.08416 11.6534 3.99949 12.3254 4 13C4 13.69 4.088 14.36 4.252 15H7.1C6.96518 13.6701 6.96518 12.3299 7.1 11H4.252ZM5.07 9H7.416C7.682 7.783 8.066 6.693 8.537 5.786C7.08518 6.48542 5.87722 7.60523 5.07 9ZM19.748 11H16.9C17.0348 12.3299 17.0348 13.6701 16.9 15H19.748C20.0847 13.6879 20.0847 12.3121 19.748 11ZM18.93 9C18.1228 7.60523 16.9148 6.48542 15.463 5.786C15.935 6.693 16.318 7.783 16.584 9H18.93ZM9.112 11C9.03708 11.664 8.99968 12.3318 9 13C9 13.685 9.038 14.355 9.112 15H14.888C15.0386 13.6709 15.0386 12.3291 14.888 11H9.112ZM9.47 9H14.53C14.348 8.2483 14.0855 7.51841 13.747 6.823C13.119 5.568 12.447 5 12 5C11.552 5 10.881 5.568 10.253 6.823C9.938 7.455 9.673 8.19 9.47 9ZM5.07 17C5.87722 18.3948 7.08518 19.5146 8.537 20.214C8.065 19.307 7.682 18.217 7.416 17H5.07ZM18.93 17H16.584C16.318 18.217 15.934 19.307 15.463 20.214C16.9148 19.5146 18.1228 18.3948 18.93 17ZM9.47 17C9.673 17.81 9.938 18.545 10.253 19.177C10.881 20.432 11.553 21 12 21C12.448 21 13.119 20.432 13.747 19.177C14.062 18.545 14.327 17.81 14.53 17H9.47ZM12 23C6.477 23 2 18.523 2 13C2 7.477 6.477 3 12 3C17.523 3 22 7.477 22 13C22 18.523 17.523 23 12 23Z" fill="#67696B"/>
</svg>
