<svg width="22" height="22" viewBox="0 0 22 22" fill="none" xmlns="http://www.w3.org/2000/svg">
<path d="M17.3639 10.3306V9.76488C17.3639 9.68024 17.3639 9.63791 17.3634 9.60211C17.3247 6.89673 15.1409 4.71298 12.4355 4.67423C12.3997 4.67372 12.3574 4.67372 12.2728 4.67372H11.7071M20.8996 11.0377V10.0477C20.8996 9.20309 20.8996 8.78077 20.8677 8.42478C20.5226 4.57009 17.4677 1.51518 13.613 1.17006C13.257 1.13818 12.8347 1.13818 11.99 1.13818L11.0001 1.13818M7.77785 8.36157C7.32461 9.40136 7.554 10.6126 8.35605 11.4146L10.7529 13.8115C11.5549 14.6135 12.7661 14.8429 13.8059 14.3897C14.8457 13.9364 16.057 14.1658 16.859 14.9679L18.3172 16.4261C18.3878 16.4967 18.4232 16.532 18.4518 16.5631C19.1548 17.3283 19.1548 18.5044 18.4518 19.2696C18.4232 19.3007 18.3878 19.336 18.3172 19.4067L17.4309 20.293C16.7091 21.0148 15.6685 21.3178 14.6721 21.0964C7.88248 19.5876 2.57995 14.285 1.07115 7.49543C0.849715 6.49897 1.15272 5.45844 1.87451 4.73665L2.76085 3.8503C2.8315 3.77966 2.86682 3.74433 2.89794 3.71574C3.6631 3.01266 4.83921 3.01266 5.60436 3.71574C5.63548 3.74433 5.67081 3.77966 5.74145 3.8503L7.19965 5.3085C8.0017 6.11055 8.23109 7.32179 7.77785 8.36157Z" stroke="#282828" stroke-width="1.5" stroke-linecap="round"/>
</svg>
