<svg width="24" height="24" viewBox="0 0 24 24" fill="none" xmlns="http://www.w3.org/2000/svg">
<path d="M19 18C19.9283 18 20.8185 17.6313 21.4749 16.9749C22.1313 16.3185 22.5 15.4283 22.5 14.5C22.5 13.5717 22.1313 12.6815 21.4749 12.0251C20.8185 11.3687 19.9283 11 19 11H18C18.1459 10.35 18.1481 9.68041 18.0065 9.0296C17.865 8.37878 17.5823 7.75944 17.1748 7.20693C16.7672 6.65442 16.2427 6.17957 15.6313 5.80948C15.0198 5.43939 14.3334 5.18132 13.6111 5.05C12.8888 4.91868 12.1449 4.91668 11.4218 5.04411C10.6986 5.17155 10.0105 5.42592 9.39659 5.79271C8.15677 6.53348 7.29469 7.68718 7 9C5.93396 8.9573 4.88554 9.2704 4.03427 9.8857C3.18301 10.501 2.58183 11.3802 2.33368 12.3728C2.08553 13.3654 2.20583 14.4097 2.674 15.3268C3.14218 16.2439 3.92909 16.9768 4.9 17.4M12 13V22M9 19L12 22L15 19" stroke="#67696B" stroke-width="2" stroke-linecap="round" stroke-linejoin="round"/>
</svg>
