<svg width="12" height="20" viewBox="0 0 12 20" fill="none" xmlns="http://www.w3.org/2000/svg">
<path d="M1.14999 19.1C0.899994 18.85 0.774994 18.554 0.774994 18.212C0.774994 17.8707 0.899994 17.575 1.14999 17.325L8.47499 10L1.12499 2.65C0.89166 2.41667 0.774994 2.125 0.774994 1.775C0.774994 1.425 0.899994 1.125 1.14999 0.875C1.39999 0.625 1.69599 0.5 2.03799 0.5C2.37933 0.5 2.67499 0.625 2.92499 0.875L11.325 9.3C11.425 9.4 11.496 9.50833 11.538 9.625C11.5793 9.74167 11.6 9.86667 11.6 10C11.6 10.1333 11.5793 10.2583 11.538 10.375C11.496 10.4917 11.425 10.6 11.325 10.7L2.89999 19.125C2.66666 19.3583 2.37933 19.475 2.03799 19.475C1.69599 19.475 1.39999 19.35 1.14999 19.1Z" fill="#67696B"/>
</svg>
